<svg width="55" height="55" viewBox="0 0 55 55" fill="none" xmlns="http://www.w3.org/2000/svg">
<g id="&#240;&#159;&#166;&#134; icon &#34;instagram&#34;">
<g id="Group">
<g id="Vector">
<path d="M2 29.9309V34.9195C2 47.5808 7.06454 52.6454 19.7259 52.6454H34.9195C47.5808 52.6454 52.6454 47.5808 52.6454 34.9195V19.7259C52.6454 7.06454 47.5808 2 34.9195 2H19.7259C7.06454 2 2 7.06454 2 19.7259" fill="white"/>
<path d="M2 29.9309V34.9195C2 47.5808 7.06454 52.6454 19.7259 52.6454H34.9195C47.5808 52.6454 52.6454 47.5808 52.6454 34.9195V19.7259C52.6454 7.06454 47.5808 2 34.9195 2H19.7259C7.06454 2 2 7.06454 2 19.7259" stroke="#292D32" stroke-width="3.7984" stroke-linecap="round" stroke-linejoin="round"/>
</g>
<path id="Vector_2" d="M27.3227 36.1856C32.2175 36.1856 36.1856 32.2176 36.1856 27.3227C36.1856 22.4278 32.2175 18.4597 27.3227 18.4597C22.4278 18.4597 18.4597 22.4278 18.4597 27.3227C18.4597 32.2176 22.4278 36.1856 27.3227 36.1856Z" fill="white" stroke="#292D32" stroke-width="3.7984" stroke-linecap="round" stroke-linejoin="round"/>
<g id="Vector_3">
<path d="M41.5948 14.6613H41.6242H41.5948Z" fill="white"/>
<path d="M41.5948 14.6613H41.6242" stroke="#292D32" stroke-width="5.06454" stroke-linecap="round" stroke-linejoin="round"/>
</g>
</g>
</g>
</svg>
